<svg preserveAspectRatio="xMidYMid meet" data-bbox="0 0 339.29 92.26" viewBox="0 0 339.29 92.26" xmlns="http://www.w3.org/2000/svg" data-type="color" role="img" aria-labelledby="svgcid-7i0uh5-l53gjm"><title id="svgcid-7i0uh5-l53gjm">Fathom3 Logo</title>
    <g>
        <path d="M324.23 44.29H295V15.06C295 6.74 301.74 0 310.06 0h14.17c8.32 0 15.06 6.74 15.06 15.06v14.17c0 8.32-6.74 15.06-15.06 15.06z" fill="#fdc500" data-color="1"></path>
        <path d="M326.1 7.8c.3 0 .57.11.79.33.22.22.33.49.33.79v2.95c0 .31-.1.59-.31.85s-.41.49-.6.69l-6.07 6.4c1.25.17 2.38.47 3.39.92 1.01.44 1.88 1.02 2.6 1.73.72.71 1.27 1.55 1.66 2.52.39.97.58 2.05.58 3.24 0 1.44-.28 2.72-.85 3.85a8.346 8.346 0 0 1-2.37 2.85c-1.01.78-2.2 1.37-3.58 1.79-1.37.42-2.86.62-4.47.62-1.94 0-3.62-.23-5.05-.69-1.43-.46-2.62-1.05-3.58-1.77s-1.68-1.54-2.18-2.45c-.5-.92-.79-1.82-.87-2.7-.03-.33.08-.6.31-.81s.51-.31.81-.31h3.28c.28 0 .51.09.69.27.18.18.37.44.56.77.17.33.39.64.67.94.28.29.64.55 1.1.79s1.03.42 1.73.56c.69.14 1.54.21 2.54.21 1.69 0 3.06-.34 4.1-1.02 1.04-.68 1.56-1.64 1.56-2.89 0-1.25-.52-2.14-1.56-2.68s-2.41-.81-4.1-.81h-3.45c-.3 0-.57-.11-.79-.33-.22-.22-.33-.48-.33-.79v-2.95c0-.3.1-.59.31-.85s.41-.49.6-.69l5.82-6.11h-11.48c-.31 0-.57-.11-.79-.33-.22-.22-.33-.48-.33-.79V8.93c0-.3.11-.57.33-.79.22-.22.48-.33.79-.33h18.21z" fill="#ffffff" data-color="2"></path>
        <path d="M47.92 44.27v8.56H12.94c-2.4 0-4.38 1.99-4.38 4.38v4.45h30.8v8.56H8.49v21.97H0V57.21c0-7.12 5.75-12.94 12.87-12.94h35.05z" fill="#000000" data-color="3"></path>
        <path d="M126.75 44.34v8.56H107.1v39.36h-8.56V52.9H78.91v-8.56h47.84z" fill="#000000" data-color="3"></path>
        <path d="M181.58 44.27v47.92h-8.56V70.22h-30.8v21.97h-8.56V44.27h8.56v17.39h30.8V44.27h8.56z" fill="#000000" data-color="3"></path>
        <path d="M234.63 68.23c0 13.21-10.75 23.96-23.96 23.96s-23.96-10.75-23.96-23.96 10.75-23.96 23.96-23.96 23.96 10.75 23.96 23.96zm-8.56 0c0-8.49-6.91-15.4-15.4-15.4s-15.4 6.91-15.4 15.4 6.91 15.4 15.4 15.4 15.4-6.91 15.4-15.4z" fill="#000000" data-color="3"></path>
        <path d="M287.68 44.27v47.92h-8.56V61.66l-8.42 6.43-6.98 5.41-6.98-5.41-8.42-6.43v30.53h-8.56V44.27l8.56 6.57 15.4 11.84 15.4-11.84 8.56-6.57z" fill="#000000" data-color="3"></path>
        <path d="M78.77 92.19h9.58l-4.38-8.56-20.05-39.36-20.06 39.36-4.38 8.56h9.58l2.55-4.98h24.61l2.55 4.98zm-6.9-13.49H55.96l7.96-15.6 7.95 15.6z" fill="#000000" data-color="3"></path>
    </g>
</svg>